# xmcd
#
# Track frame offsets:
#	150
#	8376
#	29535
#	57794
#
# Disc length: 1159 seconds
#
# Revision: 1
# Processed by: cddbd v1.5.2PL0 Copyright (c) Steve Scherf et al.
# Submitted via: audiograbber 1.83.01
#
DISCID=22048504
DTITLE=Grateful Dead - 79-08-13 McNichols Sports Arena, Denver CO
DYEAR=1900
DGENRE=
TTITLE0=Tuning
TTITLE1=I Need A Miracle
TTITLE2=Bertha
TTITLE3=Good Lovin'
EXTD=
EXTT0=
EXTT1=
EXTT2=
EXTT3=
PLAYORDER=
